<mxfile host="app.diagrams.net" modified="2023-05-21T19:23:39.741Z" agent="Mozilla/5.0 (Macintosh; Intel Mac OS X 10_15_7) AppleWebKit/537.36 (KHTML, like Gecko) Chrome/113.0.0.0 Safari/537.36" etag="cnBz9wDPd0hK00-S7RRf" version="21.3.2" type="device">
  <diagram name="Pagina-1" id="ZozM2khOpRb3tA6UZ7oJ">
    <mxGraphModel dx="1466" dy="3279" grid="0" gridSize="10" guides="1" tooltips="1" connect="1" arrows="1" fold="1" page="1" pageScale="1" pageWidth="1654" pageHeight="2336" math="0" shadow="0">
      <root>
        <mxCell id="0" />
        <mxCell id="1" parent="0" />
        <mxCell id="F2rKSkgxAObCgExfCFsF-2" value="" style="rounded=1;whiteSpace=wrap;html=1;arcSize=4;strokeColor=#575757;" parent="1" vertex="1">
          <mxGeometry x="205" y="-1211" width="1179" height="1009" as="geometry" />
        </mxCell>
        <object placeholders="1" c4Name="Homecooked food delivery API application." c4Type="ContainerScopeBoundary" c4Application="The component diagram for the homecooked API server that serves the mobile application." label="&lt;font style=&quot;font-size: 16px&quot;&gt;&lt;b&gt;&lt;div style=&quot;text-align: left&quot;&gt;%c4Name%&lt;/div&gt;&lt;/b&gt;&lt;/font&gt;&lt;div style=&quot;text-align: left&quot;&gt;[%c4Application%]&lt;/div&gt;" id="F2rKSkgxAObCgExfCFsF-3">
          <mxCell style="rounded=1;fontSize=11;whiteSpace=wrap;html=1;dashed=1;arcSize=20;fillColor=none;strokeColor=#666666;fontColor=#333333;labelBackgroundColor=none;align=left;verticalAlign=bottom;labelBorderColor=none;spacingTop=0;spacing=10;dashPattern=8 4;metaEdit=1;rotatable=0;perimeter=rectanglePerimeter;noLabel=0;labelPadding=0;allowArrows=0;connectable=0;expand=0;recursiveResize=0;editable=1;pointerEvents=0;absoluteArcSize=1;points=[[0.25,0,0],[0.5,0,0],[0.75,0,0],[1,0.25,0],[1,0.5,0],[1,0.75,0],[0.75,1,0],[0.5,1,0],[0.25,1,0],[0,0.75,0],[0,0.5,0],[0,0.25,0]];" parent="1" vertex="1">
            <mxGeometry x="255" y="-952" width="1043" height="580" as="geometry" />
          </mxCell>
        </object>
        <mxCell id="F2rKSkgxAObCgExfCFsF-9" style="rounded=0;orthogonalLoop=1;jettySize=auto;html=1;dashed=1;dashPattern=8 8;" parent="1" source="F2rKSkgxAObCgExfCFsF-4" target="F2rKSkgxAObCgExfCFsF-8" edge="1">
          <mxGeometry relative="1" as="geometry" />
        </mxCell>
        <mxCell id="F2rKSkgxAObCgExfCFsF-23" value="Users" style="edgeLabel;html=1;align=center;verticalAlign=middle;resizable=0;points=[];" parent="F2rKSkgxAObCgExfCFsF-9" vertex="1" connectable="0">
          <mxGeometry x="-0.086" y="-4" relative="1" as="geometry">
            <mxPoint x="1" as="offset" />
          </mxGeometry>
        </mxCell>
        <mxCell id="qINNBcHiuCt4Wx1EhrjD-4" style="rounded=0;orthogonalLoop=1;jettySize=auto;html=1;dashed=1;dashPattern=8 8;" edge="1" parent="1" source="F2rKSkgxAObCgExfCFsF-4" target="F2rKSkgxAObCgExfCFsF-16">
          <mxGeometry relative="1" as="geometry" />
        </mxCell>
        <mxCell id="qINNBcHiuCt4Wx1EhrjD-5" value="User data&lt;br&gt;" style="edgeLabel;html=1;align=center;verticalAlign=middle;resizable=0;points=[];" vertex="1" connectable="0" parent="qINNBcHiuCt4Wx1EhrjD-4">
          <mxGeometry x="0.4776" relative="1" as="geometry">
            <mxPoint as="offset" />
          </mxGeometry>
        </mxCell>
        <object placeholders="1" c4Name="Signin/register router" c4Type="Component" c4Technology="e.g. Express.js" c4Description="Allows the user to register and sign in, and handles the fetching of user data" label="&lt;font style=&quot;font-size: 16px&quot;&gt;&lt;b&gt;%c4Name%&lt;/b&gt;&lt;/font&gt;&lt;div&gt;[%c4Type%: %c4Technology%]&lt;/div&gt;&lt;br&gt;&lt;div&gt;&lt;font style=&quot;font-size: 11px&quot;&gt;%c4Description%&lt;/font&gt;&lt;/div&gt;" id="F2rKSkgxAObCgExfCFsF-4">
          <mxCell style="rounded=1;whiteSpace=wrap;html=1;labelBackgroundColor=none;fillColor=#63BEF2;fontColor=#ffffff;align=center;arcSize=6;strokeColor=#2086C9;metaEdit=1;resizable=0;points=[[0.25,0,0],[0.5,0,0],[0.75,0,0],[1,0.25,0],[1,0.5,0],[1,0.75,0],[0.75,1,0],[0.5,1,0],[0.25,1,0],[0,0.75,0],[0,0.5,0],[0,0.25,0]];" parent="1" vertex="1">
            <mxGeometry x="305" y="-912" width="240" height="120" as="geometry" />
          </mxCell>
        </object>
        <mxCell id="qINNBcHiuCt4Wx1EhrjD-7" style="rounded=0;orthogonalLoop=1;jettySize=auto;html=1;entryX=0.93;entryY=0.18;entryDx=0;entryDy=0;entryPerimeter=0;dashed=1;dashPattern=8 8;" edge="1" parent="1" source="F2rKSkgxAObCgExfCFsF-5" target="F2rKSkgxAObCgExfCFsF-16">
          <mxGeometry relative="1" as="geometry" />
        </mxCell>
        <mxCell id="qINNBcHiuCt4Wx1EhrjD-8" value="Reviews" style="edgeLabel;html=1;align=center;verticalAlign=middle;resizable=0;points=[];" vertex="1" connectable="0" parent="qINNBcHiuCt4Wx1EhrjD-7">
          <mxGeometry x="-0.5152" y="3" relative="1" as="geometry">
            <mxPoint as="offset" />
          </mxGeometry>
        </mxCell>
        <object placeholders="1" c4Name="Review router" c4Type="Component" c4Technology="e.g. Express.js" c4Description="Allows the users to place, edit and delete reviews." label="&lt;font style=&quot;font-size: 16px&quot;&gt;&lt;b&gt;%c4Name%&lt;/b&gt;&lt;/font&gt;&lt;div&gt;[%c4Type%: %c4Technology%]&lt;/div&gt;&lt;br&gt;&lt;div&gt;&lt;font style=&quot;font-size: 11px&quot;&gt;%c4Description%&lt;/font&gt;&lt;/div&gt;" id="F2rKSkgxAObCgExfCFsF-5">
          <mxCell style="rounded=1;whiteSpace=wrap;html=1;labelBackgroundColor=none;fillColor=#63BEF2;fontColor=#ffffff;align=center;arcSize=6;strokeColor=#2086C9;metaEdit=1;resizable=0;points=[[0.25,0,0],[0.5,0,0],[0.75,0,0],[1,0.25,0],[1,0.5,0],[1,0.75,0],[0.75,1,0],[0.5,1,0],[0.25,1,0],[0,0.75,0],[0,0.5,0],[0,0.25,0]];" parent="1" vertex="1">
            <mxGeometry x="1019" y="-699" width="240" height="120" as="geometry" />
          </mxCell>
        </object>
        <mxCell id="F2rKSkgxAObCgExfCFsF-11" style="rounded=0;orthogonalLoop=1;jettySize=auto;html=1;dashed=1;dashPattern=8 8;" parent="1" source="F2rKSkgxAObCgExfCFsF-6" target="F2rKSkgxAObCgExfCFsF-8" edge="1">
          <mxGeometry relative="1" as="geometry" />
        </mxCell>
        <mxCell id="F2rKSkgxAObCgExfCFsF-24" value="Users" style="edgeLabel;html=1;align=center;verticalAlign=middle;resizable=0;points=[];" parent="F2rKSkgxAObCgExfCFsF-11" vertex="1" connectable="0">
          <mxGeometry x="-0.2419" y="6" relative="1" as="geometry">
            <mxPoint as="offset" />
          </mxGeometry>
        </mxCell>
        <mxCell id="F2rKSkgxAObCgExfCFsF-14" value="Orders" style="rounded=0;orthogonalLoop=1;jettySize=auto;html=1;dashed=1;dashPattern=8 8;" parent="1" source="F2rKSkgxAObCgExfCFsF-6" target="F2rKSkgxAObCgExfCFsF-13" edge="1">
          <mxGeometry relative="1" as="geometry" />
        </mxCell>
        <mxCell id="F2rKSkgxAObCgExfCFsF-30" style="rounded=0;orthogonalLoop=1;jettySize=auto;html=1;dashed=1;dashPattern=8 8;" parent="1" source="F2rKSkgxAObCgExfCFsF-6" target="F2rKSkgxAObCgExfCFsF-16" edge="1">
          <mxGeometry relative="1" as="geometry" />
        </mxCell>
        <object placeholders="1" c4Name="User router" c4Type="Component" c4Technology="e.g. Express.js" c4Description="Serves user data, needed for the accountscreens and order processing." label="&lt;font style=&quot;font-size: 16px&quot;&gt;&lt;b&gt;%c4Name%&lt;/b&gt;&lt;/font&gt;&lt;div&gt;[%c4Type%: %c4Technology%]&lt;/div&gt;&lt;br&gt;&lt;div&gt;&lt;font style=&quot;font-size: 11px&quot;&gt;%c4Description%&lt;/font&gt;&lt;/div&gt;" id="F2rKSkgxAObCgExfCFsF-6">
          <mxCell style="rounded=1;whiteSpace=wrap;html=1;labelBackgroundColor=none;fillColor=#63BEF2;fontColor=#ffffff;align=center;arcSize=6;strokeColor=#2086C9;metaEdit=1;resizable=0;points=[[0.25,0,0],[0.5,0,0],[0.75,0,0],[1,0.25,0],[1,0.5,0],[1,0.75,0],[0.75,1,0],[0.5,1,0],[0.25,1,0],[0,0.75,0],[0,0.5,0],[0,0.25,0]];" parent="1" vertex="1">
            <mxGeometry x="645" y="-912" width="240" height="120" as="geometry" />
          </mxCell>
        </object>
        <object placeholders="1" c4Name="Authentication middleware." c4Type="Component" c4Technology="e.g. Express.js, BECRYPT, JWT" c4Description="Handles the authentication of users when accessing certain routes using JWT authentication tokens. " label="&lt;font style=&quot;font-size: 16px&quot;&gt;&lt;b&gt;%c4Name%&lt;/b&gt;&lt;/font&gt;&lt;div&gt;[%c4Type%: %c4Technology%]&lt;/div&gt;&lt;br&gt;&lt;div&gt;&lt;font style=&quot;font-size: 11px&quot;&gt;%c4Description%&lt;/font&gt;&lt;/div&gt;" id="F2rKSkgxAObCgExfCFsF-8">
          <mxCell style="rounded=1;whiteSpace=wrap;html=1;labelBackgroundColor=none;fillColor=#63BEF2;fontColor=#ffffff;align=center;arcSize=6;strokeColor=#2086C9;metaEdit=1;resizable=0;points=[[0.25,0,0],[0.5,0,0],[0.75,0,0],[1,0.25,0],[1,0.5,0],[1,0.75,0],[0.75,1,0],[0.5,1,0],[0.25,1,0],[0,0.75,0],[0,0.5,0],[0,0.25,0]];" parent="1" vertex="1">
            <mxGeometry x="325" y="-702" width="240" height="120" as="geometry" />
          </mxCell>
        </object>
        <mxCell id="F2rKSkgxAObCgExfCFsF-25" value="Reviews" style="rounded=0;orthogonalLoop=1;jettySize=auto;html=1;dashed=1;dashPattern=8 8;" parent="1" source="F2rKSkgxAObCgExfCFsF-12" target="F2rKSkgxAObCgExfCFsF-5" edge="1">
          <mxGeometry relative="1" as="geometry" />
        </mxCell>
        <mxCell id="qINNBcHiuCt4Wx1EhrjD-2" style="rounded=0;orthogonalLoop=1;jettySize=auto;html=1;dashed=1;dashPattern=8 8;" edge="1" parent="1" source="F2rKSkgxAObCgExfCFsF-12" target="F2rKSkgxAObCgExfCFsF-16">
          <mxGeometry relative="1" as="geometry" />
        </mxCell>
        <mxCell id="qINNBcHiuCt4Wx1EhrjD-3" value="Restaurant List&amp;nbsp;" style="edgeLabel;html=1;align=center;verticalAlign=middle;resizable=0;points=[];" vertex="1" connectable="0" parent="qINNBcHiuCt4Wx1EhrjD-2">
          <mxGeometry x="-0.7591" y="-1" relative="1" as="geometry">
            <mxPoint as="offset" />
          </mxGeometry>
        </mxCell>
        <object placeholders="1" c4Name="Restaurant router" c4Type="Component" c4Technology="e.g. Express.js" c4Description="Serves restaurant data." label="&lt;font style=&quot;font-size: 16px&quot;&gt;&lt;b&gt;%c4Name%&lt;/b&gt;&lt;/font&gt;&lt;div&gt;[%c4Type%: %c4Technology%]&lt;/div&gt;&lt;br&gt;&lt;div&gt;&lt;font style=&quot;font-size: 11px&quot;&gt;%c4Description%&lt;/font&gt;&lt;/div&gt;" id="F2rKSkgxAObCgExfCFsF-12">
          <mxCell style="rounded=1;whiteSpace=wrap;html=1;labelBackgroundColor=none;fillColor=#63BEF2;fontColor=#ffffff;align=center;arcSize=6;strokeColor=#2086C9;metaEdit=1;resizable=0;points=[[0.25,0,0],[0.5,0,0],[0.75,0,0],[1,0.25,0],[1,0.5,0],[1,0.75,0],[0.75,1,0],[0.5,1,0],[0.25,1,0],[0,0.75,0],[0,0.5,0],[0,0.25,0]];" parent="1" vertex="1">
            <mxGeometry x="945" y="-912" width="240" height="120" as="geometry" />
          </mxCell>
        </object>
        <mxCell id="F2rKSkgxAObCgExfCFsF-28" style="rounded=0;orthogonalLoop=1;jettySize=auto;html=1;dashed=1;dashPattern=8 8;" parent="1" source="F2rKSkgxAObCgExfCFsF-13" target="F2rKSkgxAObCgExfCFsF-26" edge="1">
          <mxGeometry relative="1" as="geometry" />
        </mxCell>
        <mxCell id="F2rKSkgxAObCgExfCFsF-29" value="Payment requests (API)" style="edgeLabel;html=1;align=center;verticalAlign=middle;resizable=0;points=[];" parent="F2rKSkgxAObCgExfCFsF-28" vertex="1" connectable="0">
          <mxGeometry x="0.5137" y="4" relative="1" as="geometry">
            <mxPoint as="offset" />
          </mxGeometry>
        </mxCell>
        <mxCell id="qINNBcHiuCt4Wx1EhrjD-6" value="Orders" style="rounded=0;orthogonalLoop=1;jettySize=auto;html=1;dashed=1;dashPattern=8 8;" edge="1" parent="1" source="F2rKSkgxAObCgExfCFsF-13" target="F2rKSkgxAObCgExfCFsF-16">
          <mxGeometry relative="1" as="geometry" />
        </mxCell>
        <object placeholders="1" c4Name="Order router" c4Type="Component" c4Technology="e.g. Express.js" c4Description="Handles the placing of orders and the retrieval of order data." label="&lt;font style=&quot;font-size: 16px&quot;&gt;&lt;b&gt;%c4Name%&lt;/b&gt;&lt;/font&gt;&lt;div&gt;[%c4Type%: %c4Technology%]&lt;/div&gt;&lt;br&gt;&lt;div&gt;&lt;font style=&quot;font-size: 11px&quot;&gt;%c4Description%&lt;/font&gt;&lt;/div&gt;" id="F2rKSkgxAObCgExfCFsF-13">
          <mxCell style="rounded=1;whiteSpace=wrap;html=1;labelBackgroundColor=none;fillColor=#63BEF2;fontColor=#ffffff;align=center;arcSize=6;strokeColor=#2086C9;metaEdit=1;resizable=0;points=[[0.25,0,0],[0.5,0,0],[0.75,0,0],[1,0.25,0],[1,0.5,0],[1,0.75,0],[0.75,1,0],[0.5,1,0],[0.25,1,0],[0,0.75,0],[0,0.5,0],[0,0.25,0]];" parent="1" vertex="1">
            <mxGeometry x="705" y="-692" width="240" height="120" as="geometry" />
          </mxCell>
        </object>
        <object placeholders="1" c4Type="MongoDB database" c4Container="Container" c4Technology="e.g. Oracle Database 12" c4Description="Stores user, order, review data." label="&lt;font style=&quot;font-size: 16px&quot;&gt;&lt;b&gt;%c4Type%&lt;/b&gt;&lt;/font&gt;&lt;div&gt;[%c4Container%:&amp;nbsp;%c4Technology%]&lt;/div&gt;&lt;br&gt;&lt;div&gt;&lt;font style=&quot;font-size: 11px&quot;&gt;&lt;font color=&quot;#E6E6E6&quot;&gt;%c4Description%&lt;/font&gt;&lt;/div&gt;" id="F2rKSkgxAObCgExfCFsF-16">
          <mxCell style="shape=cylinder3;size=15;whiteSpace=wrap;html=1;boundedLbl=1;rounded=0;labelBackgroundColor=none;fillColor=#23A2D9;fontSize=12;fontColor=#ffffff;align=center;strokeColor=#0E7DAD;metaEdit=1;points=[[0.5,0,0],[1,0.25,0],[1,0.5,0],[1,0.75,0],[0.5,1,0],[0,0.75,0],[0,0.5,0],[0,0.25,0]];resizable=0;" parent="1" vertex="1">
            <mxGeometry x="415" y="-352" width="240" height="120" as="geometry" />
          </mxCell>
        </object>
        <object placeholders="1" c4Name="Payment provider" c4Type="Software System" c4Description="Handles payment en invoicing" label="&lt;font style=&quot;font-size: 16px&quot;&gt;&lt;b&gt;%c4Name%&lt;/b&gt;&lt;/font&gt;&lt;div&gt;[%c4Type%]&lt;/div&gt;&lt;br&gt;&lt;div&gt;&lt;font style=&quot;font-size: 11px&quot;&gt;&lt;font color=&quot;#cccccc&quot;&gt;%c4Description%&lt;/font&gt;&lt;/div&gt;" id="F2rKSkgxAObCgExfCFsF-26">
          <mxCell style="rounded=1;whiteSpace=wrap;html=1;labelBackgroundColor=none;fillColor=#8C8496;fontColor=#ffffff;align=center;arcSize=10;strokeColor=#736782;metaEdit=1;resizable=0;points=[[0.25,0,0],[0.5,0,0],[0.75,0,0],[1,0.25,0],[1,0.5,0],[1,0.75,0],[0.75,1,0],[0.5,1,0],[0.25,1,0],[0,0.75,0],[0,0.5,0],[0,0.25,0]];" parent="1" vertex="1">
            <mxGeometry x="755" y="-352" width="240" height="120" as="geometry" />
          </mxCell>
        </object>
        <mxCell id="F2rKSkgxAObCgExfCFsF-32" style="rounded=0;orthogonalLoop=1;jettySize=auto;html=1;dashed=1;dashPattern=8 8;" parent="1" source="F2rKSkgxAObCgExfCFsF-31" target="F2rKSkgxAObCgExfCFsF-4" edge="1">
          <mxGeometry relative="1" as="geometry" />
        </mxCell>
        <mxCell id="F2rKSkgxAObCgExfCFsF-33" style="rounded=0;orthogonalLoop=1;jettySize=auto;html=1;dashed=1;dashPattern=8 8;" parent="1" source="F2rKSkgxAObCgExfCFsF-31" target="F2rKSkgxAObCgExfCFsF-6" edge="1">
          <mxGeometry relative="1" as="geometry" />
        </mxCell>
        <mxCell id="F2rKSkgxAObCgExfCFsF-34" style="rounded=0;orthogonalLoop=1;jettySize=auto;html=1;dashed=1;dashPattern=8 8;" parent="1" source="F2rKSkgxAObCgExfCFsF-31" target="F2rKSkgxAObCgExfCFsF-12" edge="1">
          <mxGeometry relative="1" as="geometry" />
        </mxCell>
        <object placeholders="1" c4Type="Mobile APP" c4Container="Container" c4Technology="e.g. React native, SwiftUI" c4Description="Mobile app that handles all the user interaction." label="&lt;font style=&quot;font-size: 16px&quot;&gt;&lt;b&gt;%c4Type%&lt;/b&gt;&lt;/font&gt;&lt;div&gt;[%c4Container%:&amp;nbsp;%c4Technology%]&lt;/div&gt;&lt;br&gt;&lt;div&gt;&lt;font style=&quot;font-size: 11px&quot;&gt;&lt;font color=&quot;#E6E6E6&quot;&gt;%c4Description%&lt;/font&gt;&lt;/div&gt;" id="F2rKSkgxAObCgExfCFsF-31">
          <mxCell style="shape=mxgraph.c4.webBrowserContainer2;whiteSpace=wrap;html=1;boundedLbl=1;rounded=0;labelBackgroundColor=none;strokeColor=#118ACD;fillColor=#23A2D9;strokeColor=#118ACD;strokeColor2=#0E7DAD;fontSize=12;fontColor=#ffffff;align=center;metaEdit=1;points=[[0.5,0,0],[1,0.25,0],[1,0.5,0],[1,0.75,0],[0.5,1,0],[0,0.75,0],[0,0.5,0],[0,0.25,0]];resizable=0;" parent="1" vertex="1">
            <mxGeometry x="658" y="-1168" width="240" height="160" as="geometry" />
          </mxCell>
        </object>
        <mxCell id="lhPTKzJZ8T8i6XcJEJmY-2" value="" style="rounded=1;whiteSpace=wrap;html=1;arcSize=4;strokeColor=#696969;" parent="1" vertex="1">
          <mxGeometry x="200" y="-2111" width="1190" height="814" as="geometry" />
        </mxCell>
        <mxCell id="lhPTKzJZ8T8i6XcJEJmY-7" style="rounded=0;orthogonalLoop=1;jettySize=auto;html=1;dashed=1;dashPattern=8 8;" parent="1" source="lhPTKzJZ8T8i6XcJEJmY-3" target="lhPTKzJZ8T8i6XcJEJmY-6" edge="1">
          <mxGeometry relative="1" as="geometry" />
        </mxCell>
        <mxCell id="lhPTKzJZ8T8i6XcJEJmY-25" value="API calls to payment provider&amp;nbsp;" style="edgeLabel;html=1;align=center;verticalAlign=middle;resizable=0;points=[];" parent="lhPTKzJZ8T8i6XcJEJmY-7" vertex="1" connectable="0">
          <mxGeometry x="-0.1146" y="-1" relative="1" as="geometry">
            <mxPoint as="offset" />
          </mxGeometry>
        </mxCell>
        <object placeholders="1" c4Name="API server" c4Type="Container" c4Technology="e.g. express.js," c4Description="Responsible for the serving of User, restaurant, order and review data, aswell as the authentication and authorization for the specific routes. " label="&lt;font style=&quot;font-size: 16px&quot;&gt;&lt;b&gt;%c4Name%&lt;/b&gt;&lt;/font&gt;&lt;div&gt;[%c4Type%: %c4Technology%]&lt;/div&gt;&lt;br&gt;&lt;div&gt;&lt;font style=&quot;font-size: 11px&quot;&gt;&lt;font color=&quot;#E6E6E6&quot;&gt;%c4Description%&lt;/font&gt;&lt;/div&gt;" id="lhPTKzJZ8T8i6XcJEJmY-3">
          <mxCell style="rounded=1;whiteSpace=wrap;html=1;fontSize=11;labelBackgroundColor=none;fillColor=#23A2D9;fontColor=#ffffff;align=center;arcSize=10;strokeColor=#0E7DAD;metaEdit=1;resizable=0;points=[[0.25,0,0],[0.5,0,0],[0.75,0,0],[1,0.25,0],[1,0.5,0],[1,0.75,0],[0.75,1,0],[0.5,1,0],[0.25,1,0],[0,0.75,0],[0,0.5,0],[0,0.25,0]];" parent="1" vertex="1">
            <mxGeometry x="658" y="-2066" width="240" height="120" as="geometry" />
          </mxCell>
        </object>
        <object placeholders="1" c4Name="Mobile application" c4Type="ContainerScopeBoundary" c4Application="The mobile application that serves as the user interface for the system." label="&lt;font style=&quot;font-size: 16px&quot;&gt;&lt;b&gt;&lt;div style=&quot;text-align: left&quot;&gt;%c4Name%&lt;/div&gt;&lt;/b&gt;&lt;/font&gt;&lt;div style=&quot;text-align: left&quot;&gt;[%c4Application%]&lt;/div&gt;" id="lhPTKzJZ8T8i6XcJEJmY-4">
          <mxCell style="rounded=1;fontSize=11;whiteSpace=wrap;html=1;dashed=1;arcSize=20;fillColor=none;strokeColor=#666666;fontColor=#333333;labelBackgroundColor=none;align=left;verticalAlign=bottom;labelBorderColor=none;spacingTop=0;spacing=10;dashPattern=8 4;metaEdit=1;rotatable=0;perimeter=rectanglePerimeter;noLabel=0;labelPadding=0;allowArrows=0;connectable=0;expand=0;recursiveResize=0;editable=1;pointerEvents=0;absoluteArcSize=1;points=[[0.25,0,0],[0.5,0,0],[0.75,0,0],[1,0.25,0],[1,0.5,0],[1,0.75,0],[0.75,1,0],[0.5,1,0],[0.25,1,0],[0,0.75,0],[0,0.5,0],[0,0.25,0]];" parent="1" vertex="1">
            <mxGeometry x="274" y="-1915" width="1049" height="567" as="geometry" />
          </mxCell>
        </object>
        <mxCell id="lhPTKzJZ8T8i6XcJEJmY-14" style="rounded=0;orthogonalLoop=1;jettySize=auto;html=1;dashed=1;dashPattern=8 8;" parent="1" source="lhPTKzJZ8T8i6XcJEJmY-5" target="lhPTKzJZ8T8i6XcJEJmY-8" edge="1">
          <mxGeometry relative="1" as="geometry" />
        </mxCell>
        <mxCell id="lhPTKzJZ8T8i6XcJEJmY-30" value="Writing/reading data" style="edgeLabel;html=1;align=center;verticalAlign=middle;resizable=0;points=[];" parent="lhPTKzJZ8T8i6XcJEJmY-14" vertex="1" connectable="0">
          <mxGeometry x="0.0544" y="-5" relative="1" as="geometry">
            <mxPoint as="offset" />
          </mxGeometry>
        </mxCell>
        <mxCell id="lhPTKzJZ8T8i6XcJEJmY-22" style="rounded=0;orthogonalLoop=1;jettySize=auto;html=1;dashed=1;dashPattern=8 8;" parent="1" source="lhPTKzJZ8T8i6XcJEJmY-5" target="lhPTKzJZ8T8i6XcJEJmY-3" edge="1">
          <mxGeometry relative="1" as="geometry" />
        </mxCell>
        <mxCell id="lhPTKzJZ8T8i6XcJEJmY-26" value="API call to register or login&amp;nbsp;" style="edgeLabel;html=1;align=center;verticalAlign=middle;resizable=0;points=[];" parent="lhPTKzJZ8T8i6XcJEJmY-22" vertex="1" connectable="0">
          <mxGeometry x="-0.1974" y="-3" relative="1" as="geometry">
            <mxPoint as="offset" />
          </mxGeometry>
        </mxCell>
        <object placeholders="1" c4Name="Login/Register component" c4Type="Component" c4Technology="e.g. react/SwiftUI" c4Description="Handles loggin and registering of users. " label="&lt;font style=&quot;font-size: 16px&quot;&gt;&lt;b&gt;%c4Name%&lt;/b&gt;&lt;/font&gt;&lt;div&gt;[%c4Type%: %c4Technology%]&lt;/div&gt;&lt;br&gt;&lt;div&gt;&lt;font style=&quot;font-size: 11px&quot;&gt;%c4Description%&lt;/font&gt;&lt;/div&gt;" id="lhPTKzJZ8T8i6XcJEJmY-5">
          <mxCell style="rounded=1;whiteSpace=wrap;html=1;labelBackgroundColor=none;fillColor=#63BEF2;fontColor=#ffffff;align=center;arcSize=6;strokeColor=#2086C9;metaEdit=1;resizable=0;points=[[0.25,0,0],[0.5,0,0],[0.75,0,0],[1,0.25,0],[1,0.5,0],[1,0.75,0],[0.75,1,0],[0.5,1,0],[0.25,1,0],[0,0.75,0],[0,0.5,0],[0,0.25,0]];" parent="1" vertex="1">
            <mxGeometry x="347" y="-1858" width="240" height="120" as="geometry" />
          </mxCell>
        </object>
        <object placeholders="1" c4Name="Payment provider" c4Type="Software System" c4Description="Handles payment en invoicing" label="&lt;font style=&quot;font-size: 16px&quot;&gt;&lt;b&gt;%c4Name%&lt;/b&gt;&lt;/font&gt;&lt;div&gt;[%c4Type%]&lt;/div&gt;&lt;br&gt;&lt;div&gt;&lt;font style=&quot;font-size: 11px&quot;&gt;&lt;font color=&quot;#cccccc&quot;&gt;%c4Description%&lt;/font&gt;&lt;/div&gt;" id="lhPTKzJZ8T8i6XcJEJmY-6">
          <mxCell style="rounded=1;whiteSpace=wrap;html=1;labelBackgroundColor=none;fillColor=#8C8496;fontColor=#ffffff;align=center;arcSize=10;strokeColor=#736782;metaEdit=1;resizable=0;points=[[0.25,0,0],[0.5,0,0],[0.75,0,0],[1,0.25,0],[1,0.5,0],[1,0.75,0],[0.75,1,0],[0.5,1,0],[0.25,1,0],[0,0.75,0],[0,0.5,0],[0,0.25,0]];" parent="1" vertex="1">
            <mxGeometry x="1111" y="-2070" width="240" height="120" as="geometry" />
          </mxCell>
        </object>
        <mxCell id="lhPTKzJZ8T8i6XcJEJmY-35" style="rounded=0;orthogonalLoop=1;jettySize=auto;html=1;dashed=1;dashPattern=8 8;" parent="1" source="lhPTKzJZ8T8i6XcJEJmY-8" target="lhPTKzJZ8T8i6XcJEJmY-34" edge="1">
          <mxGeometry relative="1" as="geometry" />
        </mxCell>
        <mxCell id="lhPTKzJZ8T8i6XcJEJmY-36" value="Storing application state" style="edgeLabel;html=1;align=center;verticalAlign=middle;resizable=0;points=[];" parent="lhPTKzJZ8T8i6XcJEJmY-35" vertex="1" connectable="0">
          <mxGeometry x="0.0409" y="2" relative="1" as="geometry">
            <mxPoint x="1" as="offset" />
          </mxGeometry>
        </mxCell>
        <object placeholders="1" c4Name="Redux reducers" c4Type="Component" c4Technology="e.g. Redux, Redux toolkit" c4Description="Handles storing and distributing data to other components." label="&lt;font style=&quot;font-size: 16px&quot;&gt;&lt;b&gt;%c4Name%&lt;/b&gt;&lt;/font&gt;&lt;div&gt;[%c4Type%: %c4Technology%]&lt;/div&gt;&lt;br&gt;&lt;div&gt;&lt;font style=&quot;font-size: 11px&quot;&gt;%c4Description%&lt;/font&gt;&lt;/div&gt;" id="lhPTKzJZ8T8i6XcJEJmY-8">
          <mxCell style="rounded=1;whiteSpace=wrap;html=1;labelBackgroundColor=none;fillColor=#63BEF2;fontColor=#ffffff;align=center;arcSize=6;strokeColor=#2086C9;metaEdit=1;resizable=0;points=[[0.25,0,0],[0.5,0,0],[0.75,0,0],[1,0.25,0],[1,0.5,0],[1,0.75,0],[0.75,1,0],[0.5,1,0],[0.25,1,0],[0,0.75,0],[0,0.5,0],[0,0.25,0]];" parent="1" vertex="1">
            <mxGeometry x="714.5" y="-1627" width="240" height="120" as="geometry" />
          </mxCell>
        </object>
        <mxCell id="lhPTKzJZ8T8i6XcJEJmY-15" style="rounded=0;orthogonalLoop=1;jettySize=auto;html=1;dashed=1;dashPattern=8 8;" parent="1" source="lhPTKzJZ8T8i6XcJEJmY-9" target="lhPTKzJZ8T8i6XcJEJmY-8" edge="1">
          <mxGeometry relative="1" as="geometry" />
        </mxCell>
        <mxCell id="lhPTKzJZ8T8i6XcJEJmY-31" value="Writing/reading data" style="edgeLabel;html=1;align=center;verticalAlign=middle;resizable=0;points=[];" parent="lhPTKzJZ8T8i6XcJEJmY-15" vertex="1" connectable="0">
          <mxGeometry x="-0.2105" y="1" relative="1" as="geometry">
            <mxPoint x="-1" y="-1" as="offset" />
          </mxGeometry>
        </mxCell>
        <mxCell id="lhPTKzJZ8T8i6XcJEJmY-23" value="API to get Restaurant information" style="rounded=0;orthogonalLoop=1;jettySize=auto;html=1;dashed=1;dashPattern=8 8;" parent="1" source="lhPTKzJZ8T8i6XcJEJmY-9" target="lhPTKzJZ8T8i6XcJEJmY-3" edge="1">
          <mxGeometry relative="1" as="geometry" />
        </mxCell>
        <object placeholders="1" c4Name="Restaurant component" c4Type="Component" c4Technology="e.g. React/SwiftUI" c4Description="Responsible for the visualization of all the possible restaurants." label="&lt;font style=&quot;font-size: 16px&quot;&gt;&lt;b&gt;%c4Name%&lt;/b&gt;&lt;/font&gt;&lt;div&gt;[%c4Type%: %c4Technology%]&lt;/div&gt;&lt;br&gt;&lt;div&gt;&lt;font style=&quot;font-size: 11px&quot;&gt;%c4Description%&lt;/font&gt;&lt;/div&gt;" id="lhPTKzJZ8T8i6XcJEJmY-9">
          <mxCell style="rounded=1;whiteSpace=wrap;html=1;labelBackgroundColor=none;fillColor=#63BEF2;fontColor=#ffffff;align=center;arcSize=6;strokeColor=#2086C9;metaEdit=1;resizable=0;points=[[0.25,0,0],[0.5,0,0],[0.75,0,0],[1,0.25,0],[1,0.5,0],[1,0.75,0],[0.75,1,0],[0.5,1,0],[0.25,1,0],[0,0.75,0],[0,0.5,0],[0,0.25,0]];" parent="1" vertex="1">
            <mxGeometry x="666" y="-1851" width="240" height="120" as="geometry" />
          </mxCell>
        </object>
        <mxCell id="lhPTKzJZ8T8i6XcJEJmY-16" style="rounded=0;orthogonalLoop=1;jettySize=auto;html=1;dashed=1;dashPattern=8 8;" parent="1" source="lhPTKzJZ8T8i6XcJEJmY-10" target="lhPTKzJZ8T8i6XcJEJmY-8" edge="1">
          <mxGeometry relative="1" as="geometry" />
        </mxCell>
        <mxCell id="lhPTKzJZ8T8i6XcJEJmY-32" value="Writing/reading data" style="edgeLabel;html=1;align=center;verticalAlign=middle;resizable=0;points=[];" parent="lhPTKzJZ8T8i6XcJEJmY-16" vertex="1" connectable="0">
          <mxGeometry x="-0.4691" y="-3" relative="1" as="geometry">
            <mxPoint x="1" as="offset" />
          </mxGeometry>
        </mxCell>
        <mxCell id="lhPTKzJZ8T8i6XcJEJmY-18" style="rounded=0;orthogonalLoop=1;jettySize=auto;html=1;dashed=1;dashPattern=8 8;" parent="1" source="lhPTKzJZ8T8i6XcJEJmY-10" target="lhPTKzJZ8T8i6XcJEJmY-17" edge="1">
          <mxGeometry relative="1" as="geometry" />
        </mxCell>
        <mxCell id="lhPTKzJZ8T8i6XcJEJmY-33" value="Sending order information" style="edgeLabel;html=1;align=center;verticalAlign=middle;resizable=0;points=[];" parent="lhPTKzJZ8T8i6XcJEJmY-18" vertex="1" connectable="0">
          <mxGeometry x="0.0666" y="1" relative="1" as="geometry">
            <mxPoint as="offset" />
          </mxGeometry>
        </mxCell>
        <mxCell id="lhPTKzJZ8T8i6XcJEJmY-27" value="Requesting Account/Order information" style="rounded=0;orthogonalLoop=1;jettySize=auto;html=1;dashed=1;dashPattern=8 8;" parent="1" source="lhPTKzJZ8T8i6XcJEJmY-10" target="lhPTKzJZ8T8i6XcJEJmY-3" edge="1">
          <mxGeometry relative="1" as="geometry" />
        </mxCell>
        <object placeholders="1" c4Name="Account component" c4Type="Component" c4Technology="e.g. React/SwiftUI" c4Description="Displays user data and handles CRUD operations for the user data. " label="&lt;font style=&quot;font-size: 16px&quot;&gt;&lt;b&gt;%c4Name%&lt;/b&gt;&lt;/font&gt;&lt;div&gt;[%c4Type%: %c4Technology%]&lt;/div&gt;&lt;br&gt;&lt;div&gt;&lt;font style=&quot;font-size: 11px&quot;&gt;%c4Description%&lt;/font&gt;&lt;/div&gt;" id="lhPTKzJZ8T8i6XcJEJmY-10">
          <mxCell style="rounded=1;whiteSpace=wrap;html=1;labelBackgroundColor=none;fillColor=#63BEF2;fontColor=#ffffff;align=center;arcSize=6;strokeColor=#2086C9;metaEdit=1;resizable=0;points=[[0.25,0,0],[0.5,0,0],[0.75,0,0],[1,0.25,0],[1,0.5,0],[1,0.75,0],[0.75,1,0],[0.5,1,0],[0.25,1,0],[0,0.75,0],[0,0.5,0],[0,0.25,0]];" parent="1" vertex="1">
            <mxGeometry x="1049" y="-1854" width="240" height="120" as="geometry" />
          </mxCell>
        </object>
        <object placeholders="1" c4Name="Order component" c4Type="Component" c4Technology="e.g. React/SwiftUI" c4Description="Responsible for handling orders and invoicing." label="&lt;font style=&quot;font-size: 16px&quot;&gt;&lt;b&gt;%c4Name%&lt;/b&gt;&lt;/font&gt;&lt;div&gt;[%c4Type%: %c4Technology%]&lt;/div&gt;&lt;br&gt;&lt;div&gt;&lt;font style=&quot;font-size: 11px&quot;&gt;%c4Description%&lt;/font&gt;&lt;/div&gt;" id="lhPTKzJZ8T8i6XcJEJmY-17">
          <mxCell style="rounded=1;whiteSpace=wrap;html=1;labelBackgroundColor=none;fillColor=#63BEF2;fontColor=#ffffff;align=center;arcSize=6;strokeColor=#2086C9;metaEdit=1;resizable=0;points=[[0.25,0,0],[0.5,0,0],[0.75,0,0],[1,0.25,0],[1,0.5,0],[1,0.75,0],[0.75,1,0],[0.5,1,0],[0.25,1,0],[0,0.75,0],[0,0.5,0],[0,0.25,0]];" parent="1" vertex="1">
            <mxGeometry x="1011" y="-1632" width="240" height="120" as="geometry" />
          </mxCell>
        </object>
        <object placeholders="1" c4Name="Redux reducers" c4Type="Component" c4Technology="e.g. Redux, Redux toolkit" c4Description="Handles storing and distributing data to other components." label="&lt;font style=&quot;font-size: 16px&quot;&gt;&lt;b&gt;%c4Name%&lt;/b&gt;&lt;/font&gt;&lt;div&gt;[%c4Type%: %c4Technology%]&lt;/div&gt;&lt;br&gt;&lt;div&gt;&lt;font style=&quot;font-size: 11px&quot;&gt;%c4Description%&lt;/font&gt;&lt;/div&gt;" id="lhPTKzJZ8T8i6XcJEJmY-34">
          <mxCell style="rounded=1;whiteSpace=wrap;html=1;labelBackgroundColor=none;fillColor=#63BEF2;fontColor=#ffffff;align=center;arcSize=6;strokeColor=#2086C9;metaEdit=1;resizable=0;points=[[0.25,0,0],[0.5,0,0],[0.75,0,0],[1,0.25,0],[1,0.5,0],[1,0.75,0],[0.75,1,0],[0.5,1,0],[0.25,1,0],[0,0.75,0],[0,0.5,0],[0,0.25,0]];" parent="1" vertex="1">
            <mxGeometry x="329" y="-1533" width="240" height="120" as="geometry" />
          </mxCell>
        </object>
      </root>
    </mxGraphModel>
  </diagram>
</mxfile>
